<svg width="173" height="50" viewBox="0 0 173 50" fill="none" xmlns="http://www.w3.org/2000/svg">
<path d="M36.7188 47V16.2812L36.4375 18.1875L26.0312 47H23.9062L13.4062 18.1875L13.1562 16.2812V47H9.125V2.1875H11.2188L24.8125 38.9375L24.9375 40.5938L25.0625 38.9375L38.625 2.1875H40.75V47H36.7188ZM70.4688 38.2188C70.4688 39.5104 70.2188 40.7292 69.7188 41.875C69.2396 43.0208 68.5729 44.0208 67.7188 44.875C66.8646 45.7292 65.8646 46.4062 64.7188 46.9062C63.5729 47.3854 62.3542 47.625 61.0625 47.625H58.5C57.2083 47.625 55.9896 47.3854 54.8438 46.9062C53.6979 46.4062 52.6979 45.7292 51.8438 44.875C50.9896 44.0208 50.3125 43.0208 49.8125 41.875C49.3333 40.7292 49.0938 39.5104 49.0938 38.2188V23.7812C49.0938 22.4896 49.3333 21.2708 49.8125 20.125C50.3125 18.9792 50.9896 17.9792 51.8438 17.125C52.6979 16.2708 53.6979 15.6042 54.8438 15.125C55.9896 14.625 57.2083 14.375 58.5 14.375H61.0625C62.3542 14.375 63.5729 14.625 64.7188 15.125C65.8646 15.6042 66.8646 16.2708 67.7188 17.125C68.5729 17.9792 69.2396 18.9792 69.7188 20.125C70.2188 21.2708 70.4688 22.4896 70.4688 23.7812V38.2188ZM66.625 23.5625C66.625 22.7917 66.4792 22.0729 66.1875 21.4062C65.8958 20.7188 65.5 20.125 65 19.625C64.5 19.125 63.9062 18.7292 63.2188 18.4375C62.5521 18.1458 61.8333 18 61.0625 18H58.5C57.7292 18 57 18.1458 56.3125 18.4375C55.6458 18.7292 55.0625 19.125 54.5625 19.625C54.0625 20.125 53.6667 20.7188 53.375 21.4062C53.0833 22.0729 52.9375 22.7917 52.9375 23.5625V38.4375C52.9375 39.2083 53.0833 39.9375 53.375 40.625C53.6667 41.2917 54.0625 41.875 54.5625 42.375C55.0625 42.875 55.6458 43.2708 56.3125 43.5625C57 43.8542 57.7292 44 58.5 44H61.0625C61.8333 44 62.5521 43.8542 63.2188 43.5625C63.9062 43.2708 64.5 42.875 65 42.375C65.5 41.875 65.8958 41.2917 66.1875 40.625C66.4792 39.9375 66.625 39.2083 66.625 38.4375V23.5625ZM88.1875 47H86.2812L74.9375 15H78.7812L87.125 39.25L87.25 40.9062L87.375 39.25L95.6875 15H99.5312L88.1875 47ZM105 7.3125V2.1875H109.469V7.3125H105ZM105.312 47V15H109.156V47H105.312ZM139.531 38.2188C139.531 39.5104 139.281 40.7292 138.781 41.875C138.302 43.0208 137.635 44.0208 136.781 44.875C135.927 45.7292 134.927 46.4062 133.781 46.9062C132.635 47.3854 131.417 47.625 130.125 47.625H127.562C126.271 47.625 125.052 47.3854 123.906 46.9062C122.76 46.4062 121.76 45.7292 120.906 44.875C120.052 44.0208 119.375 43.0208 118.875 41.875C118.396 40.7292 118.156 39.5104 118.156 38.2188V23.7812C118.156 22.4896 118.396 21.2708 118.875 20.125C119.375 18.9792 120.052 17.9792 120.906 17.125C121.76 16.2708 122.76 15.6042 123.906 15.125C125.052 14.625 126.271 14.375 127.562 14.375H130.125C131.417 14.375 132.635 14.625 133.781 15.125C134.927 15.6042 135.927 16.2708 136.781 17.125C137.635 17.9792 138.302 18.9792 138.781 20.125C139.281 21.2708 139.531 22.4896 139.531 23.7812V31.3125H122V38.4375C122 39.2083 122.146 39.9375 122.438 40.625C122.729 41.2917 123.125 41.875 123.625 42.375C124.125 42.875 124.708 43.2708 125.375 43.5625C126.062 43.8542 126.792 44 127.562 44H130.125C130.896 44 131.615 43.8542 132.281 43.5625C132.969 43.2708 133.562 42.875 134.062 42.375C134.562 41.875 134.958 41.2917 135.25 40.625C135.542 39.9375 135.688 39.2083 135.688 38.4375V36.3125L139.531 36.9375V38.2188ZM135.688 23.5625C135.688 22.7917 135.542 22.0729 135.25 21.4062C134.958 20.7188 134.562 20.125 134.062 19.625C133.562 19.125 132.969 18.7292 132.281 18.4375C131.615 18.1458 130.896 18 130.125 18H127.562C126.792 18 126.062 18.1458 125.375 18.4375C124.708 18.7292 124.125 19.125 123.625 19.625C123.125 20.125 122.729 20.7188 122.438 21.4062C122.146 22.0729 122 22.7917 122 23.5625V28.3125H135.688V23.5625ZM169.219 38.875C169.219 40.1667 168.958 41.3542 168.438 42.4375C167.917 43.5 167.208 44.4167 166.312 45.1875C165.417 45.9583 164.375 46.5625 163.188 47C162.021 47.4167 160.792 47.625 159.5 47.625H156.938C155.646 47.625 154.406 47.3854 153.219 46.9062C152.052 46.4062 151.021 45.7292 150.125 44.875C149.25 44.0208 148.542 43.0208 148 41.875C147.479 40.7292 147.219 39.5104 147.219 38.2188V36.9375L151.062 36.3125V38.4375C151.062 39.2083 151.219 39.9375 151.531 40.625C151.865 41.2917 152.302 41.875 152.844 42.375C153.385 42.875 154.01 43.2708 154.719 43.5625C155.427 43.8542 156.167 44 156.938 44H159.5C160.271 44 161.01 43.8854 161.719 43.6562C162.427 43.4271 163.052 43.1042 163.594 42.6875C164.156 42.25 164.594 41.7292 164.906 41.125C165.24 40.5208 165.406 39.8333 165.406 39.0625C165.406 37.9167 165.156 36.9792 164.656 36.25C164.156 35.5208 163.49 34.9167 162.656 34.4375C161.844 33.9375 160.906 33.5312 159.844 33.2188C158.802 32.8854 157.729 32.5625 156.625 32.25C155.521 31.9167 154.438 31.5417 153.375 31.125C152.333 30.7083 151.396 30.1667 150.562 29.5C149.75 28.8125 149.094 27.9583 148.594 26.9375C148.094 25.9167 147.844 24.6458 147.844 23.125C147.844 21.8333 148.094 20.6562 148.594 19.5938C149.094 18.5104 149.771 17.5833 150.625 16.8125C151.479 16.0417 152.469 15.4479 153.594 15.0312C154.74 14.5938 155.958 14.375 157.25 14.375H159.5C160.792 14.375 162.01 14.625 163.156 15.125C164.302 15.6042 165.302 16.2708 166.156 17.125C167.01 17.9792 167.677 18.9792 168.156 20.125C168.656 21.2708 168.906 22.4896 168.906 23.7812V23.9062L165.062 24.5312V23.5625C165.062 22.7917 164.917 22.0729 164.625 21.4062C164.333 20.7188 163.938 20.125 163.438 19.625C162.938 19.125 162.344 18.7292 161.656 18.4375C160.99 18.1458 160.271 18 159.5 18H157.25C156.479 18 155.75 18.1146 155.062 18.3438C154.396 18.5729 153.812 18.9062 153.312 19.3438C152.812 19.7604 152.417 20.2708 152.125 20.875C151.833 21.4792 151.688 22.1667 151.688 22.9375C151.688 24.0417 151.938 24.9479 152.438 25.6562C152.938 26.3438 153.594 26.9271 154.406 27.4062C155.24 27.8854 156.177 28.2917 157.219 28.625C158.281 28.9375 159.354 29.2708 160.438 29.625C161.542 29.9583 162.615 30.3438 163.656 30.7812C164.719 31.2188 165.656 31.7812 166.469 32.4688C167.302 33.1562 167.969 34.0208 168.469 35.0625C168.969 36.0833 169.219 37.3542 169.219 38.875Z" fill="#00E8E4"/>
</svg>
