<svg width="173" height="164" viewBox="0 0 173 164" fill="none" xmlns="http://www.w3.org/2000/svg">
<path d="M36.7188 63V32.2812L36.4375 34.1875L26.0312 63H23.9062L13.4062 34.1875L13.1562 32.2812V63H9.125V18.1875H11.2188L24.8125 54.9375L24.9375 56.5938L25.0625 54.9375L38.625 18.1875H40.75V63H36.7188ZM70.4688 54.2188C70.4688 55.5104 70.2188 56.7292 69.7188 57.875C69.2396 59.0208 68.5729 60.0208 67.7188 60.875C66.8646 61.7292 65.8646 62.4062 64.7188 62.9062C63.5729 63.3854 62.3542 63.625 61.0625 63.625H58.5C57.2083 63.625 55.9896 63.3854 54.8438 62.9062C53.6979 62.4062 52.6979 61.7292 51.8438 60.875C50.9896 60.0208 50.3125 59.0208 49.8125 57.875C49.3333 56.7292 49.0938 55.5104 49.0938 54.2188V39.7812C49.0938 38.4896 49.3333 37.2708 49.8125 36.125C50.3125 34.9792 50.9896 33.9792 51.8438 33.125C52.6979 32.2708 53.6979 31.6042 54.8438 31.125C55.9896 30.625 57.2083 30.375 58.5 30.375H61.0625C62.3542 30.375 63.5729 30.625 64.7188 31.125C65.8646 31.6042 66.8646 32.2708 67.7188 33.125C68.5729 33.9792 69.2396 34.9792 69.7188 36.125C70.2188 37.2708 70.4688 38.4896 70.4688 39.7812V54.2188ZM66.625 39.5625C66.625 38.7917 66.4792 38.0729 66.1875 37.4062C65.8958 36.7188 65.5 36.125 65 35.625C64.5 35.125 63.9062 34.7292 63.2188 34.4375C62.5521 34.1458 61.8333 34 61.0625 34H58.5C57.7292 34 57 34.1458 56.3125 34.4375C55.6458 34.7292 55.0625 35.125 54.5625 35.625C54.0625 36.125 53.6667 36.7188 53.375 37.4062C53.0833 38.0729 52.9375 38.7917 52.9375 39.5625V54.4375C52.9375 55.2083 53.0833 55.9375 53.375 56.625C53.6667 57.2917 54.0625 57.875 54.5625 58.375C55.0625 58.875 55.6458 59.2708 56.3125 59.5625C57 59.8542 57.7292 60 58.5 60H61.0625C61.8333 60 62.5521 59.8542 63.2188 59.5625C63.9062 59.2708 64.5 58.875 65 58.375C65.5 57.875 65.8958 57.2917 66.1875 56.625C66.4792 55.9375 66.625 55.2083 66.625 54.4375V39.5625ZM88.1875 63H86.2812L74.9375 31H78.7812L87.125 55.25L87.25 56.9062L87.375 55.25L95.6875 31H99.5312L88.1875 63ZM105 23.3125V18.1875H109.469V23.3125H105ZM105.312 63V31H109.156V63H105.312ZM139.531 54.2188C139.531 55.5104 139.281 56.7292 138.781 57.875C138.302 59.0208 137.635 60.0208 136.781 60.875C135.927 61.7292 134.927 62.4062 133.781 62.9062C132.635 63.3854 131.417 63.625 130.125 63.625H127.562C126.271 63.625 125.052 63.3854 123.906 62.9062C122.76 62.4062 121.76 61.7292 120.906 60.875C120.052 60.0208 119.375 59.0208 118.875 57.875C118.396 56.7292 118.156 55.5104 118.156 54.2188V39.7812C118.156 38.4896 118.396 37.2708 118.875 36.125C119.375 34.9792 120.052 33.9792 120.906 33.125C121.76 32.2708 122.76 31.6042 123.906 31.125C125.052 30.625 126.271 30.375 127.562 30.375H130.125C131.417 30.375 132.635 30.625 133.781 31.125C134.927 31.6042 135.927 32.2708 136.781 33.125C137.635 33.9792 138.302 34.9792 138.781 36.125C139.281 37.2708 139.531 38.4896 139.531 39.7812V47.3125H122V54.4375C122 55.2083 122.146 55.9375 122.438 56.625C122.729 57.2917 123.125 57.875 123.625 58.375C124.125 58.875 124.708 59.2708 125.375 59.5625C126.062 59.8542 126.792 60 127.562 60H130.125C130.896 60 131.615 59.8542 132.281 59.5625C132.969 59.2708 133.562 58.875 134.062 58.375C134.562 57.875 134.958 57.2917 135.25 56.625C135.542 55.9375 135.688 55.2083 135.688 54.4375V52.3125L139.531 52.9375V54.2188ZM135.688 39.5625C135.688 38.7917 135.542 38.0729 135.25 37.4062C134.958 36.7188 134.562 36.125 134.062 35.625C133.562 35.125 132.969 34.7292 132.281 34.4375C131.615 34.1458 130.896 34 130.125 34H127.562C126.792 34 126.062 34.1458 125.375 34.4375C124.708 34.7292 124.125 35.125 123.625 35.625C123.125 36.125 122.729 36.7188 122.438 37.4062C122.146 38.0729 122 38.7917 122 39.5625V44.3125H135.688V39.5625ZM169.219 54.875C169.219 56.1667 168.958 57.3542 168.438 58.4375C167.917 59.5 167.208 60.4167 166.312 61.1875C165.417 61.9583 164.375 62.5625 163.188 63C162.021 63.4167 160.792 63.625 159.5 63.625H156.938C155.646 63.625 154.406 63.3854 153.219 62.9062C152.052 62.4062 151.021 61.7292 150.125 60.875C149.25 60.0208 148.542 59.0208 148 57.875C147.479 56.7292 147.219 55.5104 147.219 54.2188V52.9375L151.062 52.3125V54.4375C151.062 55.2083 151.219 55.9375 151.531 56.625C151.865 57.2917 152.302 57.875 152.844 58.375C153.385 58.875 154.01 59.2708 154.719 59.5625C155.427 59.8542 156.167 60 156.938 60H159.5C160.271 60 161.01 59.8854 161.719 59.6562C162.427 59.4271 163.052 59.1042 163.594 58.6875C164.156 58.25 164.594 57.7292 164.906 57.125C165.24 56.5208 165.406 55.8333 165.406 55.0625C165.406 53.9167 165.156 52.9792 164.656 52.25C164.156 51.5208 163.49 50.9167 162.656 50.4375C161.844 49.9375 160.906 49.5312 159.844 49.2188C158.802 48.8854 157.729 48.5625 156.625 48.25C155.521 47.9167 154.438 47.5417 153.375 47.125C152.333 46.7083 151.396 46.1667 150.562 45.5C149.75 44.8125 149.094 43.9583 148.594 42.9375C148.094 41.9167 147.844 40.6458 147.844 39.125C147.844 37.8333 148.094 36.6562 148.594 35.5938C149.094 34.5104 149.771 33.5833 150.625 32.8125C151.479 32.0417 152.469 31.4479 153.594 31.0312C154.74 30.5938 155.958 30.375 157.25 30.375H159.5C160.792 30.375 162.01 30.625 163.156 31.125C164.302 31.6042 165.302 32.2708 166.156 33.125C167.01 33.9792 167.677 34.9792 168.156 36.125C168.656 37.2708 168.906 38.4896 168.906 39.7812V39.9062L165.062 40.5312V39.5625C165.062 38.7917 164.917 38.0729 164.625 37.4062C164.333 36.7188 163.938 36.125 163.438 35.625C162.938 35.125 162.344 34.7292 161.656 34.4375C160.99 34.1458 160.271 34 159.5 34H157.25C156.479 34 155.75 34.1146 155.062 34.3438C154.396 34.5729 153.812 34.9062 153.312 35.3438C152.812 35.7604 152.417 36.2708 152.125 36.875C151.833 37.4792 151.688 38.1667 151.688 38.9375C151.688 40.0417 151.938 40.9479 152.438 41.6562C152.938 42.3438 153.594 42.9271 154.406 43.4062C155.24 43.8854 156.177 44.2917 157.219 44.625C158.281 44.9375 159.354 45.2708 160.438 45.625C161.542 45.9583 162.615 46.3438 163.656 46.7812C164.719 47.2188 165.656 47.7812 166.469 48.4688C167.302 49.1562 167.969 50.0208 168.469 51.0625C168.969 52.0833 169.219 53.3542 169.219 54.875Z" fill="#00E8E4"/>
</svg>
